<?xml version="1.0" encoding="UTF-8"?>
<svg id="Layer_1" data-name="Layer 1" xmlns="http://www.w3.org/2000/svg" viewBox="0 0 2834.65 2834.65">
  <defs>
    <style>
      .cls-1 {
        fill: #007efb;
      }
    </style>
  </defs>
  <path class="cls-1" d="M1714.6,822.47h-594.54c-164.3,0-297.74,133.13-297.74,297.74v594.54c0,164.3,133.44,297.43,297.74,297.43h594.54c164.3,0,297.74-133.13,297.74-297.43v-594.54c0-164.61-133.44-297.74-297.74-297.74ZM1417.17,1880.3c-255.65,0-462.67-207.32-462.67-462.97s207.01-462.66,462.67-462.66,462.97,207.01,462.97,462.66-207.33,462.97-462.97,462.97Z"/>
  <path class="cls-1" d="M1419.06,1126.67c-36.5,0-66.09,29.59-66.09,66.09v207.62c0,36.5,29.59,66.09,66.09,66.09s66.09-29.59,66.09-66.09v-207.62c0-36.5-29.59-66.09-66.09-66.09Z"/>
</svg>